<svg id="svg" version="1.1" xmlns="http://www.w3.org/2000/svg" xmlns:xlink="http://www.w3.org/1999/xlink" width="400" height="391.7745620715918" viewBox="0, 0, 400,391.7745620715918"><g id="svgg"><path id="path0" d="M58.373 73.541 C 56.938 75.552,55.224 77.241,53.713 78.134 C 52.832 78.654,52.780 78.797,52.612 81.184 C 52.389 84.344,52.687 83.191,42.912 118.660 C 31.560 159.852,24.744 183.496,23.314 186.649 C 21.657 190.301,19.508 191.815,15.110 192.430 C 11.633 192.916,11.508 193.017,11.665 195.213 C 11.832 197.539,11.610 197.477,18.458 197.103 C 22.642 196.875,26.839 196.866,31.988 197.072 C 40.440 197.410,40.061 197.508,40.061 194.983 C 40.061 192.752,40.328 192.941,36.410 192.391 C 29.596 191.435,29.593 191.885,36.568 163.298 C 39.562 151.029,39.760 150.441,41.117 149.739 C 42.373 149.089,66.186 149.046,67.728 149.690 C 69.188 150.301,69.407 150.993,73.131 166.794 C 79.204 192.559,79.262 191.231,72.009 192.398 C 68.581 192.950,68.478 193.036,68.634 195.213 C 68.802 197.549,68.493 197.474,76.339 197.082 C 82.873 196.755,94.028 196.864,99.216 197.305 L 101.402 197.490 101.730 196.273 C 102.475 193.507,102.020 192.954,98.548 192.391 C 91.027 191.174,90.420 189.959,83.636 162.581 C 81.387 153.504,76.194 132.643,72.096 116.222 C 67.997 99.802,63.925 83.283,63.047 79.513 C 62.169 75.743,61.329 72.501,61.180 72.310 C 60.423 71.338,59.727 71.643,58.373 73.541 M55.707 95.430 C 56.869 99.157,66.066 137.124,66.316 139.223 C 66.626 141.836,66.784 141.800,54.729 141.892 C 43.618 141.978,42.904 141.896,42.706 140.513 C 42.588 139.697,51.770 104.619,54.107 96.954 C 54.944 94.209,55.239 93.928,55.707 95.430 M141.209 99.331 C 118.674 102.843,104.163 124.324,105.206 152.628 C 106.466 186.836,129.946 206.402,159.486 197.859 C 162.716 196.925,166.937 195.108,167.485 194.415 C 168.860 192.678,172.926 175.916,172.241 174.809 C 171.254 173.211,169.785 174.024,168.897 176.659 C 159.629 204.181,129.006 200.734,119.146 171.059 C 114.607 157.400,114.667 137.442,119.286 124.600 C 124.821 109.210,137.561 101.076,151.505 104.030 C 159.411 105.705,165.399 112.713,167.266 122.476 C 167.714 124.823,167.970 125.209,169.078 125.209 C 170.452 125.209,170.607 124.738,170.286 121.539 C 169.958 118.269,169.078 105.504,169.078 104.017 C 169.078 103.143,168.972 103.022,168.088 102.899 C 167.544 102.824,165.481 102.261,163.505 101.649 C 156.470 99.470,146.782 98.462,141.209 99.331 M203.503 101.027 C 200.352 101.193,193.769 101.764,192.825 101.953 C 191.803 102.157,191.242 103.404,191.589 104.705 C 191.809 105.534,191.906 105.571,194.842 105.927 C 200.081 106.564,201.482 107.293,202.491 109.910 C 203.203 111.754,203.369 186.451,202.666 188.758 C 201.764 191.723,200.259 192.874,196.301 193.627 C 191.948 194.455,192.090 194.385,191.990 195.745 C 191.821 198.017,191.659 197.981,200.702 197.647 C 205.918 197.453,211.819 197.454,217.609 197.648 C 227.581 197.983,227.404 198.015,227.404 195.902 C 227.404 194.350,227.589 194.451,223.788 193.918 C 216.977 192.962,215.500 191.800,214.782 186.838 C 214.231 183.029,214.377 107.504,214.937 106.706 C 216.289 104.775,226.153 104.960,231.074 107.008 C 239.515 110.520,243.679 118.314,243.322 129.931 C 242.938 142.433,237.743 149.316,226.265 152.530 C 223.097 153.417,222.661 153.819,223.159 155.389 C 223.743 157.228,236.781 154.736,242.487 151.695 C 254.879 145.090,259.578 129.140,253.027 115.918 C 246.891 103.532,233.328 99.454,203.503 101.027 M282.254 101.179 C 270.751 101.702,269.612 101.940,269.612 103.810 C 269.612 105.370,270.019 105.619,273.213 106.010 C 280.984 106.962,280.574 104.523,280.574 149.733 C 280.574 194.500,280.901 192.417,273.689 193.625 C 268.572 194.482,268.862 194.359,268.760 195.735 C 268.592 198.023,268.373 197.978,277.933 197.646 C 283.391 197.457,289.247 197.457,294.384 197.648 C 303.218 197.975,303.128 197.992,303.118 196.058 C 303.111 194.579,302.819 194.401,299.419 193.787 C 295.741 193.124,294.618 192.634,293.584 191.242 C 292.021 189.136,292.029 189.232,291.919 171.669 L 291.816 155.220 292.477 154.685 C 293.357 153.972,300.387 153.914,302.700 154.601 C 305.814 155.526,306.179 156.009,315.015 170.927 C 325.986 189.449,331.099 195.097,339.257 197.710 C 343.754 199.151,351.314 199.522,354.643 198.466 C 355.618 198.156,355.418 196.547,354.379 196.345 C 349.136 195.325,347.635 194.463,343.027 189.824 C 336.334 183.087,330.291 174.386,320.577 157.502 C 316.485 150.391,316.504 150.514,319.269 149.122 C 340.162 138.601,339.425 109.688,318.093 103.007 C 311.293 100.877,300.732 100.339,282.254 101.179 M305.609 105.837 C 316.016 107.836,322.019 116.067,322.007 128.319 C 321.996 139.232,318.191 145.786,310.249 148.572 C 307.397 149.572,293.445 149.914,292.355 149.011 C 291.551 148.344,291.585 107.631,292.391 106.635 C 293.397 105.393,300.930 104.938,305.609 105.837 M163.653 245.468 C 163.748 245.963,164.589 246.007,175.417 246.081 C 187.018 246.161,187.076 246.158,186.750 245.548 C 186.271 244.653,163.481 244.575,163.653 245.468 M222.595 245.138 C 221.627 246.106,222.303 246.162,234.040 246.081 C 244.855 246.007,245.696 245.963,245.791 245.468 C 245.897 244.920,223.137 244.596,222.595 245.138 M166.699 250.343 C 166.794 250.837,167.622 250.882,178.180 250.956 C 188.487 251.028,189.540 250.990,189.371 250.550 C 189.269 250.283,189.185 250.007,189.185 249.937 C 189.185 249.867,184.103 249.810,177.891 249.810 C 167.298 249.810,166.603 249.843,166.699 250.343 M220.157 250.013 C 219.192 250.978,219.874 251.036,231.298 250.956 C 241.823 250.882,242.650 250.837,242.745 250.343 C 242.850 249.795,220.699 249.471,220.157 250.013 M169.383 254.928 C 169.383 255.828,170.270 255.903,181.053 255.903 C 190.903 255.903,191.974 255.855,191.807 255.421 C 191.705 255.156,191.622 254.881,191.622 254.811 C 191.622 254.741,186.618 254.684,180.503 254.684 C 174.387 254.684,169.383 254.794,169.383 254.928 M217.702 255.166 C 217.600 255.431,217.517 255.705,217.517 255.775 C 217.517 255.845,222.521 255.903,228.637 255.903 C 239.553 255.903,239.756 255.891,239.756 255.293 C 239.756 254.446,218.026 254.321,217.702 255.166 M172.182 260.088 C 172.278 260.587,173.054 260.630,183.195 260.705 C 193.476 260.780,194.100 260.754,194.002 260.248 C 193.906 259.748,193.131 259.705,182.989 259.631 C 172.708 259.555,172.085 259.581,172.182 260.088 M215.570 260.040 C 215.468 260.305,215.385 260.579,215.385 260.649 C 215.385 260.720,220.237 260.777,226.167 260.777 C 237.250 260.777,237.319 260.770,237.319 259.686 C 237.319 259.237,215.743 259.589,215.570 260.040 M144.097 264.673 C 144.097 265.582,144.970 265.651,156.367 265.651 C 167.191 265.651,167.898 265.618,167.802 265.118 C 167.691 264.544,144.097 264.100,144.097 264.673 M174.620 264.966 C 174.715 265.460,175.514 265.505,185.491 265.579 C 195.243 265.651,196.243 265.613,196.074 265.173 C 195.971 264.906,195.887 264.630,195.887 264.560 C 195.887 264.490,191.079 264.433,185.202 264.433 C 175.190 264.433,174.524 264.466,174.620 264.966 M213.557 265.042 C 213.234 265.646,213.325 265.651,224.024 265.651 C 235.118 265.651,235.187 265.644,235.187 264.560 C 235.187 264.004,213.858 264.479,213.557 265.042 M242.254 264.798 C 242.053 264.999,241.889 265.273,241.889 265.407 C 241.889 265.542,247.002 265.651,253.252 265.651 C 264.464 265.651,265.347 265.580,265.347 264.676 C 265.347 264.256,242.677 264.375,242.254 264.798 M147.946 269.760 C 148.187 270.388,170.735 270.468,170.526 269.840 C 170.428 269.546,167.808 269.441,159.084 269.379 C 149.090 269.309,147.790 269.353,147.946 269.760 M176.889 269.764 C 177.040 270.158,178.509 270.221,187.533 270.221 C 196.712 270.221,197.979 270.165,197.825 269.764 C 197.674 269.370,196.206 269.307,187.182 269.307 C 178.002 269.307,176.735 269.363,176.889 269.764 M211.617 269.768 C 211.461 270.175,212.693 270.219,222.146 270.149 C 230.382 270.087,232.880 269.981,232.978 269.688 C 233.187 269.060,211.858 269.140,211.617 269.768 M239.341 269.764 C 239.188 270.165,240.505 270.221,250.087 270.221 C 259.422 270.221,261.062 270.155,261.386 269.764 C 261.722 269.359,260.495 269.307,250.641 269.307 C 241.034 269.307,239.493 269.369,239.341 269.764 M151.104 274.638 C 151.429 275.029,153.069 275.095,162.404 275.095 C 171.986 275.095,173.303 275.039,173.149 274.638 C 172.998 274.244,171.457 274.181,161.849 274.181 C 151.996 274.181,150.768 274.233,151.104 274.638 M179.132 274.638 C 179.132 275.035,180.469 275.095,189.337 275.095 C 198.206 275.095,199.543 275.035,199.543 274.638 C 199.543 274.241,198.206 274.181,189.337 274.181 C 180.469 274.181,179.132 274.241,179.132 274.638 M209.791 274.638 C 209.637 275.039,210.904 275.095,220.084 275.095 C 229.108 275.095,230.576 275.032,230.727 274.638 C 230.881 274.238,229.614 274.181,220.434 274.181 C 211.410 274.181,209.942 274.244,209.791 274.638 M236.913 274.384 C 236.293 275.004,237.649 275.095,247.492 275.095 C 256.795 275.095,258.299 275.033,258.450 274.638 C 258.634 274.157,237.390 273.907,236.913 274.384 M153.843 279.509 C 154.363 280.135,175.608 280.214,175.400 279.589 C 175.302 279.296,172.763 279.189,164.367 279.128 C 154.660 279.057,153.503 279.099,153.843 279.509 M180.960 279.513 C 180.960 279.910,182.296 279.970,191.156 279.970 C 200.094 279.970,201.330 279.913,201.176 279.513 C 201.025 279.119,199.607 279.056,190.980 279.056 C 182.276 279.056,180.960 279.116,180.960 279.513 M208.268 279.513 C 208.114 279.913,209.364 279.970,218.408 279.970 C 227.297 279.970,228.748 279.906,228.899 279.513 C 229.053 279.112,227.803 279.056,218.759 279.056 C 209.870 279.056,208.419 279.119,208.268 279.513 M234.476 279.259 C 234.364 279.370,234.273 279.578,234.273 279.720 C 234.273 280.164,255.678 279.883,255.826 279.436 C 255.964 279.024,234.886 278.848,234.476 279.259 M124.600 283.770 C 124.600 283.849,125.005 284.123,125.499 284.379 C 126.487 284.890,150.190 285.102,150.190 284.600 C 150.190 283.690,149.317 283.625,137.030 283.625 C 130.193 283.625,124.600 283.690,124.600 283.770 M156.097 284.103 C 156.199 284.370,156.283 284.646,156.283 284.716 C 156.283 284.787,161.023 284.844,166.816 284.844 C 176.683 284.844,177.342 284.810,177.246 284.311 C 177.151 283.817,176.359 283.772,166.527 283.697 C 156.914 283.625,155.928 283.663,156.097 284.103 M182.541 284.158 C 182.636 284.651,183.399 284.698,192.651 284.772 C 201.708 284.845,202.640 284.806,202.471 284.366 C 202.369 284.099,202.285 283.823,202.285 283.753 C 202.285 283.683,197.819 283.625,192.362 283.625 C 183.075 283.625,182.445 283.659,182.541 284.158 M207.039 284.107 C 206.938 284.372,206.855 284.646,206.855 284.716 C 206.855 284.787,211.447 284.844,217.060 284.844 C 227.063 284.844,227.266 284.832,227.266 284.235 C 227.266 283.388,207.363 283.263,207.039 284.107 M232.648 283.828 C 231.687 284.789,232.383 284.852,243.027 284.772 C 252.827 284.697,253.617 284.652,253.712 284.158 C 253.818 283.610,233.189 283.287,232.648 283.828 M259.863 284.235 C 259.539 284.839,259.631 284.844,271.596 284.844 C 283.492 284.844,285.453 284.692,285.453 283.770 C 285.453 283.201,260.170 283.660,259.863 284.235 M131.302 288.957 C 131.626 289.347,133.250 289.414,142.450 289.414 C 151.896 289.414,153.196 289.357,153.042 288.957 C 152.891 288.562,151.367 288.500,141.895 288.500 C 132.177 288.500,130.966 288.552,131.302 288.957 M158.111 288.957 C 158.111 289.354,159.481 289.414,168.612 289.414 C 177.821 289.414,179.091 289.357,178.937 288.957 C 178.786 288.563,177.334 288.500,168.437 288.500 C 159.462 288.500,158.111 288.559,158.111 288.957 M183.896 288.957 C 184.047 289.350,185.448 289.414,193.930 289.414 C 202.568 289.414,203.767 289.357,203.614 288.957 C 203.463 288.563,202.062 288.500,193.579 288.500 C 184.941 288.500,183.742 288.556,183.896 288.957 M205.941 288.961 C 205.941 289.587,225.762 289.507,225.971 288.880 C 226.071 288.581,223.947 288.500,216.019 288.500 C 207.223 288.500,205.941 288.558,205.941 288.961 M230.922 288.957 C 230.922 289.354,232.272 289.414,241.247 289.414 C 250.144 289.414,251.597 289.350,251.748 288.957 C 251.901 288.556,250.631 288.500,241.422 288.500 C 232.291 288.500,230.922 288.559,230.922 288.957 M257.020 288.703 C 256.400 289.322,257.742 289.414,267.442 289.414 C 276.515 289.414,278.122 289.347,278.446 288.957 C 278.846 288.476,257.500 288.223,257.020 288.703 M135.263 293.313 C 135.263 294.204,136.159 294.288,145.714 294.288 C 154.453 294.288,155.416 294.239,155.250 293.806 C 155.148 293.541,155.065 293.267,155.065 293.197 C 155.065 293.127,150.609 293.069,145.164 293.069 C 139.718 293.069,135.263 293.179,135.263 293.313 M159.754 293.551 C 159.856 293.816,159.939 294.090,159.939 294.160 C 159.939 294.231,164.532 294.288,170.145 294.288 C 180.147 294.288,180.350 294.276,180.350 293.679 C 180.350 293.081,180.147 293.069,169.960 293.069 C 160.610 293.069,159.588 293.118,159.754 293.551 M185.225 293.679 C 185.225 294.275,185.428 294.288,194.821 294.288 C 204.214 294.288,204.417 294.275,204.417 293.679 C 204.417 293.082,204.214 293.069,194.821 293.069 C 185.428 293.069,185.225 293.082,185.225 293.679 M205.230 293.272 C 204.275 294.227,204.984 294.297,214.847 294.216 C 223.921 294.142,224.676 294.095,224.771 293.602 C 224.876 293.054,205.771 292.732,205.230 293.272 M229.601 293.272 C 228.643 294.231,229.344 294.296,239.676 294.216 C 249.185 294.142,249.961 294.096,250.056 293.602 C 250.162 293.054,230.143 292.731,229.601 293.272 M254.887 293.272 C 253.951 294.209,254.677 294.288,264.219 294.288 C 273.588 294.288,274.486 294.203,274.486 293.313 C 274.486 293.021,255.179 292.981,254.887 293.272 " stroke="none" fill="#f8f9fb" fill-rule="evenodd"></path><path id="path1" d="M52.482 80.427 C 52.482 81.181,52.541 81.489,52.614 81.112 C 52.687 80.735,52.687 80.118,52.614 79.741 C 52.541 79.364,52.482 79.673,52.482 80.427 M144.783 98.915 C 145.076 98.992,145.556 98.992,145.849 98.915 C 146.142 98.839,145.903 98.776,145.316 98.776 C 144.730 98.776,144.490 98.839,144.783 98.915 M215.473 100.759 C 216.611 100.818,218.394 100.818,219.434 100.758 C 220.474 100.699,219.543 100.651,217.365 100.651 C 215.187 100.652,214.335 100.701,215.473 100.759 M297.715 100.758 C 298.679 100.819,300.255 100.819,301.219 100.758 C 302.182 100.698,301.394 100.648,299.467 100.648 C 297.540 100.648,296.752 100.698,297.715 100.758 M283.553 101.053 C 283.932 101.126,284.480 101.123,284.771 101.047 C 285.063 100.971,284.752 100.911,284.082 100.915 C 283.412 100.918,283.174 100.980,283.553 101.053 M169.149 104.494 C 169.149 105.080,169.212 105.320,169.288 105.027 C 169.365 104.733,169.365 104.254,169.288 103.960 C 169.212 103.667,169.149 103.907,169.149 104.494 M247.677 108.549 C 247.677 108.602,248.123 109.047,248.667 109.539 L 249.657 110.434 248.763 109.444 C 247.928 108.521,247.677 108.314,247.677 108.549 M280.365 117.593 C 280.365 118.515,280.423 118.892,280.492 118.431 C 280.562 117.970,280.562 117.216,280.492 116.756 C 280.423 116.295,280.365 116.672,280.365 117.593 M256.000 128.561 C 256.000 129.650,256.055 130.095,256.123 129.551 C 256.190 129.006,256.190 128.115,256.123 127.570 C 256.055 127.026,256.000 127.471,256.000 128.561 M115.842 144.554 C 115.846 145.225,115.908 145.463,115.981 145.084 C 116.054 144.705,116.051 144.157,115.975 143.865 C 115.898 143.574,115.839 143.884,115.842 144.554 M104.881 149.886 C 104.881 150.640,104.941 150.948,105.013 150.571 C 105.086 150.194,105.086 149.577,105.013 149.200 C 104.941 148.823,104.881 149.132,104.881 149.886 M48.190 149.505 C 51.488 149.554,56.972 149.554,60.376 149.505 C 63.780 149.456,61.081 149.415,54.379 149.415 C 47.677 149.415,44.892 149.455,48.190 149.505 M115.836 151.104 C 115.836 151.691,115.899 151.931,115.975 151.637 C 116.052 151.344,116.052 150.864,115.975 150.571 C 115.899 150.278,115.836 150.518,115.836 151.104 M280.365 181.874 C 280.365 182.795,280.423 183.172,280.492 182.711 C 280.562 182.251,280.562 181.497,280.492 181.036 C 280.423 180.575,280.365 180.952,280.365 181.874 M119.117 189.337 C 119.685 189.924,120.219 190.404,120.302 190.404 C 120.386 190.404,119.990 189.924,119.421 189.337 C 118.853 188.751,118.319 188.271,118.235 188.271 C 118.152 188.271,118.548 188.751,119.117 189.337 M343.018 189.871 C 344.281 191.216,344.554 191.457,344.554 191.229 C 344.554 191.180,343.903 190.529,343.107 189.782 L 341.660 188.423 343.018 189.871 M329.005 191.394 C 330.267 192.739,330.541 192.981,330.541 192.752 C 330.541 192.703,329.890 192.052,329.094 191.305 L 327.647 189.947 329.005 191.394 M40.284 194.973 C 40.284 195.560,40.347 195.800,40.423 195.506 C 40.500 195.213,40.500 194.733,40.423 194.440 C 40.347 194.147,40.284 194.387,40.284 194.973 M68.311 194.973 C 68.311 195.560,68.374 195.800,68.451 195.506 C 68.527 195.213,68.527 194.733,68.451 194.440 C 68.374 194.147,68.311 194.387,68.311 194.973 M84.311 197.016 C 84.688 197.089,85.305 197.089,85.682 197.016 C 86.059 196.944,85.750 196.884,84.996 196.884 C 84.242 196.884,83.934 196.944,84.311 197.016 M34.501 197.316 C 34.794 197.392,35.274 197.392,35.567 197.316 C 35.861 197.239,35.621 197.177,35.034 197.177 C 34.448 197.177,34.208 197.239,34.501 197.316 M196.268 197.925 C 196.561 198.002,197.041 198.002,197.334 197.925 C 197.628 197.849,197.388 197.786,196.801 197.786 C 196.215 197.786,195.975 197.849,196.268 197.925 M221.100 197.931 C 221.479 198.003,222.028 198.001,222.319 197.924 C 222.610 197.848,222.300 197.789,221.630 197.792 C 220.960 197.795,220.721 197.858,221.100 197.931 M273.343 197.925 C 273.637 198.002,274.117 198.002,274.410 197.925 C 274.703 197.849,274.463 197.786,273.877 197.786 C 273.290 197.786,273.050 197.849,273.343 197.925 M297.715 197.925 C 298.008 198.002,298.488 198.002,298.781 197.925 C 299.075 197.849,298.835 197.786,298.248 197.786 C 297.662 197.786,297.422 197.849,297.715 197.925 M147.448 269.231 C 147.448 269.439,156.485 269.434,166.489 269.220 C 168.667 269.173,165.274 269.105,158.949 269.069 C 152.624 269.032,147.448 269.105,147.448 269.231 M181.778 269.230 C 184.657 269.280,189.455 269.280,192.440 269.230 C 195.425 269.180,193.069 269.140,187.205 269.139 C 181.340 269.139,178.898 269.180,181.778 269.230 M215.385 269.219 C 225.010 269.434,233.289 269.439,233.160 269.231 C 233.082 269.105,228.194 269.032,222.297 269.068 C 216.401 269.105,213.290 269.173,215.385 269.219 M245.031 269.230 C 248.184 269.280,253.256 269.280,256.303 269.230 C 259.350 269.181,256.771 269.140,250.571 269.140 C 244.372 269.140,241.879 269.181,245.031 269.230 M222.087 270.221 L 211.272 270.385 221.993 270.455 C 228.888 270.500,232.781 270.417,232.902 270.221 C 233.005 270.053,233.048 269.948,232.996 269.987 C 232.944 270.025,228.035 270.131,222.087 270.221 M153.922 270.449 C 157.064 270.498,162.205 270.498,165.347 270.449 C 168.488 270.399,165.918 270.359,159.634 270.359 C 153.351 270.359,150.781 270.399,153.922 270.449 M182.082 270.449 C 184.962 270.499,189.760 270.499,192.745 270.449 C 195.730 270.399,193.374 270.358,187.510 270.358 C 181.645 270.358,179.203 270.399,182.082 270.449 M244.554 270.449 C 247.612 270.499,252.616 270.499,255.674 270.449 C 258.732 270.399,256.230 270.359,250.114 270.359 C 243.998 270.359,241.497 270.399,244.554 270.449 M156.379 274.105 C 159.532 274.154,164.604 274.154,167.651 274.105 C 170.698 274.055,168.119 274.014,161.919 274.014 C 155.720 274.015,153.227 274.055,156.379 274.105 M183.930 274.105 C 186.820 274.155,191.550 274.155,194.440 274.105 C 197.331 274.055,194.966 274.014,189.185 274.014 C 183.404 274.014,181.040 274.055,183.930 274.105 M214.984 274.105 C 217.864 274.155,222.662 274.155,225.647 274.105 C 228.632 274.055,226.276 274.014,220.411 274.014 C 214.547 274.014,212.105 274.055,214.984 274.105 M242.442 274.105 C 245.510 274.154,250.446 274.154,253.409 274.105 C 256.372 274.055,253.861 274.014,247.829 274.014 C 241.797 274.014,239.373 274.055,242.442 274.105 M220.107 275.095 L 209.444 275.259 220.012 275.330 C 226.806 275.375,230.648 275.291,230.769 275.095 C 230.873 274.928,230.915 274.822,230.863 274.861 C 230.812 274.899,225.971 275.005,220.107 275.095 M247.372 275.095 L 236.253 275.259 247.278 275.329 C 254.377 275.375,258.371 275.291,258.492 275.095 C 258.596 274.928,258.638 274.822,258.586 274.861 C 258.534 274.900,253.488 275.005,247.372 275.095 M156.816 275.323 C 159.874 275.373,164.878 275.373,167.936 275.323 C 170.994 275.274,168.492 275.233,162.376 275.233 C 156.260 275.233,153.759 275.274,156.816 275.323 M184.367 275.323 C 187.163 275.373,191.824 275.373,194.725 275.323 C 197.626 275.273,195.339 275.232,189.642 275.232 C 183.945 275.232,181.572 275.273,184.367 275.323 M136.425 288.423 C 139.494 288.473,144.429 288.473,147.392 288.423 C 150.355 288.373,147.845 288.332,141.813 288.332 C 135.781 288.333,133.356 288.373,136.425 288.423 M162.890 288.423 C 165.769 288.473,170.567 288.473,173.552 288.423 C 176.537 288.373,174.181 288.332,168.317 288.332 C 162.452 288.332,160.010 288.373,162.890 288.423 M188.671 288.423 C 191.488 288.473,196.012 288.473,198.725 288.423 C 201.437 288.372,199.132 288.331,193.602 288.331 C 188.073 288.331,185.854 288.373,188.671 288.423 M210.891 288.423 C 213.698 288.473,218.290 288.473,221.097 288.423 C 223.903 288.373,221.607 288.332,215.994 288.332 C 210.381 288.332,208.085 288.373,210.891 288.423 M236.005 288.423 C 238.884 288.473,243.682 288.473,246.667 288.423 C 249.652 288.373,247.296 288.332,241.432 288.332 C 235.567 288.332,233.125 288.373,236.005 288.423 M257.015 288.423 C 256.887 288.632,265.491 288.626,275.095 288.412 C 277.190 288.366,274.010 288.298,268.030 288.261 C 262.050 288.225,257.093 288.298,257.015 288.423 M183.964 289.494 C 184.093 289.622,188.644 289.690,194.079 289.646 L 203.960 289.565 193.846 289.413 C 188.283 289.330,183.836 289.366,183.964 289.494 M137.167 289.642 C 140.141 289.691,145.008 289.691,147.982 289.642 C 150.956 289.592,148.522 289.551,142.574 289.551 C 136.626 289.551,134.193 289.592,137.167 289.642 M163.519 289.642 C 166.409 289.692,171.139 289.692,174.029 289.642 C 176.919 289.591,174.554 289.551,168.774 289.551 C 162.993 289.551,160.628 289.591,163.519 289.642 M210.910 289.642 C 213.728 289.692,218.252 289.692,220.964 289.641 C 223.676 289.591,221.371 289.550,215.842 289.550 C 210.312 289.550,208.093 289.591,210.910 289.642 M235.700 289.641 C 238.580 289.691,243.378 289.692,246.363 289.642 C 249.348 289.592,246.992 289.551,241.127 289.551 C 235.263 289.551,232.821 289.591,235.700 289.641 M261.767 289.642 C 264.741 289.691,269.608 289.691,272.582 289.642 C 275.556 289.592,273.123 289.551,267.174 289.551 C 261.226 289.551,258.793 289.592,261.767 289.642 " stroke="none" fill="#486fbd" fill-rule="evenodd"></path><path id="path2" d="M146.611 98.915 C 146.904 98.992,147.384 98.992,147.677 98.915 C 147.970 98.839,147.730 98.776,147.144 98.776 C 146.558 98.776,146.318 98.839,146.611 98.915 M203.735 101.053 C 204.114 101.126,204.663 101.123,204.954 101.047 C 205.245 100.971,204.935 100.911,204.265 100.915 C 203.595 100.918,203.357 100.980,203.735 101.053 M285.682 101.053 C 286.059 101.125,286.676 101.125,287.053 101.053 C 287.430 100.980,287.121 100.921,286.367 100.921 C 285.613 100.921,285.305 100.980,285.682 101.053 M49.124 141.888 C 51.931 141.939,56.523 141.939,59.330 141.888 C 62.136 141.838,59.840 141.797,54.227 141.797 C 48.614 141.797,46.318 141.838,49.124 141.888 M223.991 156.189 C 224.284 156.265,224.764 156.265,225.057 156.189 C 225.350 156.112,225.110 156.049,224.524 156.049 C 223.938 156.049,223.698 156.112,223.991 156.189 M22.011 197.019 C 22.471 197.089,23.225 197.089,23.686 197.019 C 24.147 196.950,23.770 196.893,22.848 196.893 C 21.927 196.893,21.550 196.950,22.011 197.019 M26.280 197.020 C 26.743 197.090,27.428 197.088,27.803 197.016 C 28.178 196.943,27.799 196.886,26.961 196.888 C 26.123 196.891,25.817 196.950,26.280 197.020 M80.503 197.023 C 81.131 197.089,82.159 197.089,82.788 197.023 C 83.416 196.957,82.902 196.904,81.645 196.904 C 80.388 196.904,79.874 196.957,80.503 197.023 M87.519 197.026 C 88.320 197.088,89.553 197.088,90.261 197.024 C 90.968 196.960,90.312 196.908,88.804 196.909 C 87.296 196.910,86.718 196.963,87.519 197.026 M205.864 197.638 C 207.582 197.692,210.392 197.692,212.110 197.638 C 213.827 197.583,212.422 197.539,208.987 197.539 C 205.552 197.539,204.147 197.583,205.864 197.638 M283.261 197.638 C 284.987 197.692,287.729 197.692,289.354 197.637 C 290.978 197.583,289.566 197.538,286.215 197.539 C 282.864 197.539,281.534 197.584,283.261 197.638 M194.440 197.925 C 194.733 198.002,195.213 198.002,195.506 197.925 C 195.800 197.849,195.560 197.786,194.973 197.786 C 194.387 197.786,194.147 197.849,194.440 197.925 M223.233 197.931 C 223.612 198.003,224.160 198.001,224.451 197.924 C 224.743 197.848,224.433 197.789,223.762 197.792 C 223.092 197.795,222.854 197.858,223.233 197.931 M271.211 197.925 C 271.504 198.002,271.984 198.002,272.277 197.925 C 272.570 197.849,272.331 197.786,271.744 197.786 C 271.158 197.786,270.918 197.849,271.211 197.925 M299.543 197.925 C 299.836 198.002,300.316 198.002,300.609 197.925 C 300.903 197.849,300.663 197.786,300.076 197.786 C 299.490 197.786,299.250 197.849,299.543 197.925 M157.197 278.968 C 166.802 279.182,175.406 279.188,175.277 278.979 C 175.199 278.854,170.243 278.781,164.262 278.817 C 158.282 278.854,155.103 278.922,157.197 278.968 M180.854 278.979 C 180.776 279.105,183.681 279.173,187.310 279.130 C 199.725 278.984,200.912 278.882,190.955 278.816 C 185.477 278.780,180.932 278.854,180.854 278.979 M213.481 278.979 C 216.371 279.029,221.101 279.029,223.991 278.979 C 226.881 278.929,224.516 278.888,218.736 278.888 C 212.955 278.888,210.590 278.929,213.481 278.979 M239.832 278.979 C 242.807 279.029,247.673 279.029,250.647 278.979 C 253.621 278.929,251.188 278.888,245.240 278.888 C 239.292 278.888,236.858 278.929,239.832 278.979 " stroke="none" fill="#849cd4" fill-rule="evenodd"></path><path id="path3" d="M2.437 147.753 L 2.437 295.506 199.848 295.506 C 308.423 295.506,397.258 295.437,397.258 295.351 C 397.258 295.266,395.903 292.487,394.246 289.177 C 357.341 215.438,350.924 132.877,375.829 52.247 C 380.969 35.609,389.401 15.026,395.830 3.424 C 396.783 1.705,397.563 0.231,397.563 0.149 C 397.563 0.067,308.660 0.000,200.000 0.000 L 2.437 0.000 2.437 147.753 M61.027 71.973 C 61.384 72.234,62.030 74.436,63.097 79.024 C 65.600 89.788,87.918 179.039,88.815 181.874 C 91.219 189.467,93.144 191.471,98.797 192.259 C 101.931 192.696,102.197 192.965,101.988 195.485 C 101.810 197.637,101.814 197.635,98.096 197.385 C 94.033 197.112,77.757 197.097,73.009 197.362 C 68.999 197.585,69.019 197.589,68.564 196.394 C 67.552 193.731,68.324 192.823,72.130 192.201 C 78.988 191.078,78.935 192.235,73.236 168.054 C 69.405 151.803,69.015 150.463,67.953 149.895 C 66.661 149.203,41.626 149.493,40.714 150.210 C 39.730 150.984,39.750 150.915,35.971 166.489 C 29.767 192.054,29.733 191.532,37.624 192.408 C 40.171 192.691,40.872 193.582,40.365 195.890 C 40.005 197.528,39.758 197.605,35.766 197.322 C 32.712 197.105,14.543 197.232,12.647 197.483 C 11.799 197.595,11.074 195.340,11.458 193.786 L 11.729 192.688 14.508 192.344 C 21.604 191.465,22.244 190.563,26.838 174.983 C 38.606 135.068,52.394 84.298,52.397 80.863 L 52.399 78.711 53.558 78.060 C 54.902 77.304,57.747 74.391,58.758 72.734 C 59.484 71.546,60.144 71.324,61.027 71.973 M53.950 98.020 C 51.781 105.346,42.955 139.220,42.955 140.217 C 42.955 141.702,42.624 141.660,54.424 141.660 C 66.232 141.660,66.108 141.681,66.108 139.701 C 66.108 138.328,57.764 103.287,55.566 95.430 C 55.227 94.217,54.938 94.679,53.950 98.020 M151.453 99.028 C 155.558 99.448,160.948 100.595,165.022 101.915 C 166.812 102.496,168.443 102.970,168.645 102.970 C 169.189 102.970,169.383 103.713,169.385 105.813 C 169.388 107.478,169.948 115.931,170.493 122.531 C 170.685 124.853,170.678 124.883,169.883 125.245 C 168.297 125.968,167.728 125.330,166.955 121.961 C 163.253 105.822,149.150 98.975,134.515 106.212 C 109.524 118.569,109.410 177.208,134.349 191.598 C 148.752 199.909,163.444 193.453,168.809 176.456 C 169.984 172.734,172.688 172.863,172.303 176.623 C 171.842 181.114,169.246 191.355,167.904 193.970 C 167.146 195.448,162.516 197.398,156.436 198.798 C 128.817 205.161,107.008 186.255,105.124 154.317 C 103.124 120.415,123.446 96.163,151.453 99.028 M224.329 100.850 C 239.869 101.792,248.430 106.264,253.171 115.918 C 259.944 129.707,254.882 145.747,241.736 152.153 C 236.234 154.835,224.932 157.202,223.460 155.981 C 222.384 155.088,222.876 153.292,224.296 152.928 C 236.590 149.777,241.917 143.912,243.175 132.140 C 244.492 119.814,239.321 109.946,229.884 106.778 C 225.058 105.158,217.169 104.993,215.444 106.476 L 214.623 107.182 214.534 143.690 C 214.408 195.328,213.901 192.395,223.166 193.661 C 227.340 194.231,227.572 194.346,227.566 195.848 C 227.557 197.972,228.817 197.831,209.624 197.850 L 192.242 197.867 191.891 197.020 C 191.214 195.385,191.852 194.261,193.612 193.985 C 203.861 192.379,203.182 195.552,203.186 149.276 C 203.189 104.486,203.681 107.266,195.561 106.206 C 191.837 105.720,191.318 105.432,191.318 103.860 C 191.318 101.639,193.317 101.236,206.245 100.854 C 217.672 100.516,218.816 100.516,224.329 100.850 M311.332 101.315 C 326.458 103.401,334.318 111.615,334.341 125.362 C 334.358 135.944,329.393 144.003,319.770 149.009 C 316.711 150.601,316.708 150.579,320.669 157.411 C 335.722 183.380,344.556 193.935,352.873 195.889 C 360.406 197.660,351.594 200.292,343.090 198.812 C 332.392 196.950,326.961 191.527,314.378 170.145 C 305.161 154.481,305.259 154.578,298.248 154.246 C 294.069 154.048,292.255 154.410,291.982 155.498 C 291.500 157.416,292.038 187.182,292.584 188.880 C 293.592 192.011,295.153 192.991,300.415 193.797 C 303.251 194.231,303.757 194.786,303.157 196.801 L 302.839 197.867 285.845 197.846 L 268.850 197.825 268.593 196.780 C 268.117 194.844,268.666 194.156,270.887 193.913 C 281.042 192.799,280.556 195.023,280.556 149.733 C 280.556 105.309,280.886 107.253,273.156 106.168 C 271.424 105.925,270.015 105.572,269.872 105.346 C 269.489 104.743,269.564 102.844,269.992 102.287 C 271.086 100.866,302.687 100.122,311.332 101.315 M295.095 105.715 C 291.729 106.145,292.017 104.208,291.914 127.122 C 291.812 149.793,291.753 148.858,293.309 149.189 C 295.519 149.658,306.447 149.441,308.682 148.884 C 317.702 146.635,322.460 138.667,321.908 126.733 C 321.217 111.797,310.885 103.698,295.095 105.715 M186.748 245.063 C 186.748 245.133,186.831 245.407,186.933 245.672 C 187.099 246.106,185.956 246.154,175.356 246.154 C 168.887 246.154,163.595 246.097,163.595 246.026 C 163.595 245.956,163.512 245.682,163.410 245.417 C 163.243 244.983,164.387 244.935,174.986 244.935 C 181.455 244.935,186.748 244.993,186.748 245.063 M246.154 245.063 C 246.154 246.153,246.140 246.154,233.935 246.154 C 227.419 246.154,222.087 246.097,222.087 246.026 C 222.087 244.936,222.100 244.935,234.305 244.935 C 240.822 244.935,246.154 244.993,246.154 245.063 M189.490 250.419 C 189.813 251.023,189.721 251.028,178.229 251.028 C 171.856 251.028,166.641 250.971,166.641 250.901 C 166.641 250.831,166.558 250.557,166.456 250.291 C 166.132 249.445,189.036 249.572,189.490 250.419 M243.107 249.937 C 243.107 251.025,243.078 251.028,231.194 251.028 C 224.844 251.028,219.650 250.971,219.650 250.901 C 219.650 249.812,219.679 249.810,231.563 249.810 C 237.913 249.810,243.107 249.867,243.107 249.937 M191.927 255.293 C 192.250 255.897,192.159 255.903,180.981 255.903 C 170.021 255.903,169.700 255.886,169.383 255.293 C 169.060 254.689,169.151 254.684,180.329 254.684 C 191.289 254.684,191.610 254.701,191.927 255.293 M240.061 254.811 C 240.061 255.898,240.016 255.903,228.441 255.903 C 217.285 255.903,217.194 255.897,217.517 255.293 C 217.818 254.730,240.061 254.255,240.061 254.811 M194.059 259.686 C 194.059 259.756,194.143 260.030,194.244 260.295 C 194.411 260.729,193.321 260.777,183.277 260.777 C 177.143 260.777,172.125 260.720,172.125 260.649 C 172.125 260.579,172.042 260.305,171.940 260.040 C 171.773 259.606,172.863 259.558,182.907 259.558 C 189.041 259.558,194.059 259.616,194.059 259.686 M237.261 260.091 C 237.166 260.586,236.353 260.630,226.107 260.704 C 215.114 260.784,215.056 260.781,215.383 260.171 C 215.861 259.277,237.433 259.198,237.261 260.091 M167.860 264.560 C 167.860 264.630,167.943 264.904,168.045 265.169 C 168.370 266.016,144.551 265.889,144.097 265.042 C 143.774 264.437,143.866 264.433,155.816 264.433 C 162.440 264.433,167.860 264.490,167.860 264.560 M196.192 265.042 C 196.515 265.646,196.424 265.651,185.540 265.651 C 179.502 265.651,174.562 265.594,174.562 265.524 C 174.562 265.454,174.479 265.180,174.377 264.914 C 174.052 264.068,195.739 264.195,196.192 265.042 M235.187 265.042 C 234.769 265.822,213.252 266.021,213.252 265.245 C 213.252 264.467,213.726 264.433,224.585 264.433 C 235.418 264.433,235.510 264.438,235.187 265.042 M265.347 265.042 C 265.029 265.635,264.709 265.651,253.292 265.651 C 241.657 265.651,241.565 265.646,241.889 265.042 C 242.206 264.449,242.527 264.433,253.944 264.433 C 265.578 264.433,265.670 264.438,265.347 265.042 M170.591 269.592 C 170.764 269.916,170.906 270.258,170.906 270.353 C 170.906 270.448,165.879 270.526,159.735 270.526 C 148.186 270.526,147.449 270.449,147.449 269.260 C 147.449 268.634,170.254 268.961,170.591 269.592 M197.965 269.840 L 198.062 270.526 187.563 270.526 C 176.557 270.526,176.695 270.541,176.695 269.278 C 176.695 269.107,180.891 269.026,187.281 269.074 L 197.867 269.155 197.965 269.840 M233.145 269.195 C 233.251 269.300,233.200 269.643,233.033 269.956 C 232.563 270.833,211.424 270.844,211.424 269.967 C 211.424 269.660,211.516 269.317,211.627 269.205 C 211.886 268.947,232.887 268.936,233.145 269.195 M261.691 269.398 C 261.691 270.472,261.135 270.526,250.053 270.526 C 243.633 270.526,239.147 270.410,239.147 270.246 C 239.147 268.984,238.975 269.002,250.604 269.002 C 259.498 269.002,261.691 269.081,261.691 269.398 M173.159 274.359 C 173.260 274.624,173.343 274.966,173.343 275.120 C 173.343 275.568,151.615 275.484,151.165 275.034 C 150.053 273.922,150.468 273.877,161.887 273.877 C 171.716 273.877,172.995 273.931,173.159 274.359 M199.663 274.359 C 199.764 274.624,199.848 274.966,199.848 275.120 C 199.848 275.568,179.642 275.484,179.193 275.034 C 178.086 273.928,178.527 273.877,189.152 273.877 C 198.287 273.877,199.499 273.932,199.663 274.359 M230.867 274.562 L 230.769 275.248 220.183 275.328 C 213.793 275.376,209.596 275.295,209.596 275.124 C 209.596 273.861,209.459 273.877,220.465 273.877 L 230.964 273.877 230.867 274.562 M258.589 274.562 L 258.492 275.248 247.449 275.327 C 241.375 275.371,236.405 275.328,236.405 275.231 C 236.405 273.878,236.417 273.877,247.861 273.877 L 258.687 273.877 258.589 274.562 M175.565 279.364 C 175.724 279.971,175.617 279.976,164.714 279.897 C 154.505 279.823,153.695 279.778,153.599 279.284 C 153.427 278.389,175.331 278.469,175.565 279.364 M201.066 278.878 C 201.066 278.948,201.150 279.224,201.253 279.492 C 201.422 279.932,200.462 279.970,191.127 279.897 C 181.586 279.823,180.808 279.777,180.713 279.284 C 180.617 278.785,181.261 278.751,190.838 278.751 C 196.464 278.751,201.066 278.808,201.066 278.878 M229.094 279.360 C 229.094 279.958,228.891 279.970,218.583 279.970 C 208.043 279.970,207.331 279.899,208.276 278.954 C 208.880 278.350,229.094 278.745,229.094 279.360 M256.207 278.878 C 256.207 279.964,256.146 279.970,244.892 279.970 C 234.041 279.970,233.949 279.964,234.273 279.360 C 234.574 278.797,256.207 278.322,256.207 278.878 M150.190 284.235 C 150.514 284.839,150.422 284.844,138.305 284.844 C 126.251 284.844,124.296 284.694,124.296 283.770 C 124.296 283.201,149.883 283.660,150.190 284.235 M177.304 283.753 C 177.304 283.823,177.387 284.097,177.489 284.362 C 177.813 285.208,156.432 285.081,155.979 284.235 C 155.655 283.631,155.747 283.625,166.478 283.625 C 172.432 283.625,177.304 283.683,177.304 283.753 M202.678 284.235 C 202.835 284.835,202.687 284.844,192.660 284.844 C 187.063 284.844,182.483 284.787,182.483 284.716 C 182.483 284.646,182.400 284.372,182.298 284.107 C 182.132 283.674,183.137 283.625,192.316 283.625 C 202.262 283.625,202.522 283.641,202.678 284.235 M227.513 284.158 C 227.340 285.053,206.855 285.133,206.855 284.239 C 206.855 283.636,207.035 283.625,217.235 283.625 C 226.957 283.625,227.609 283.659,227.513 284.158 M254.075 283.753 C 254.075 284.837,254.005 284.844,242.922 284.844 C 236.992 284.844,232.140 284.787,232.140 284.716 C 232.140 283.632,232.210 283.625,243.292 283.625 C 249.223 283.625,254.075 283.683,254.075 283.753 M285.758 283.770 C 285.758 283.849,285.353 284.123,284.859 284.379 C 283.871 284.890,259.558 285.102,259.558 284.600 C 259.558 283.688,260.429 283.625,273.024 283.625 C 280.027 283.625,285.758 283.690,285.758 283.770 M152.871 288.561 C 153.980 289.669,153.547 289.718,142.674 289.718 C 131.776 289.718,130.998 289.634,130.998 288.452 C 130.998 288.023,152.440 288.129,152.871 288.561 M179.077 289.033 L 179.174 289.718 168.856 289.718 C 158.373 289.718,157.807 289.660,157.807 288.587 C 157.807 288.263,159.816 288.202,168.393 288.267 L 178.979 288.347 179.077 289.033 M203.754 289.037 L 203.852 289.727 193.853 289.646 L 183.854 289.566 183.756 288.876 L 183.658 288.187 193.657 288.267 L 203.656 288.347 203.754 289.037 M225.992 288.880 L 225.895 289.566 216.013 289.646 C 206.153 289.727,205.443 289.661,205.811 288.703 C 205.987 288.243,206.955 288.195,216.048 288.195 L 226.090 288.195 225.992 288.880 M251.942 288.475 C 251.942 289.733,252.073 289.718,241.095 289.718 C 234.935 289.718,230.617 289.603,230.617 289.438 C 230.617 288.180,230.486 288.195,241.464 288.195 C 247.624 288.195,251.942 288.310,251.942 288.475 M278.751 288.399 C 278.751 289.652,278.166 289.718,267.127 289.718 C 261.289 289.718,256.512 289.641,256.512 289.546 C 256.512 288.197,256.531 288.195,267.947 288.195 C 273.889 288.195,278.751 288.287,278.751 288.399 M155.311 293.755 C 155.407 294.254,154.780 294.288,145.552 294.288 C 135.844 294.288,134.958 294.206,134.958 293.309 C 134.958 292.737,155.201 293.180,155.311 293.755 M180.597 293.755 C 180.693 294.254,180.034 294.288,170.167 294.288 C 159.815 294.288,159.634 294.277,159.634 293.675 C 159.634 292.780,180.425 292.860,180.597 293.755 M204.722 293.679 C 204.722 294.275,204.519 294.288,194.821 294.288 C 185.123 294.288,184.920 294.275,184.920 293.679 C 184.920 293.082,185.123 293.069,194.821 293.069 C 204.519 293.069,204.722 293.082,204.722 293.679 M224.917 293.679 C 224.762 294.272,224.501 294.288,214.892 294.288 C 205.230 294.288,205.027 294.275,205.027 293.679 C 205.027 293.082,205.230 293.069,215.051 293.069 C 224.926 293.069,225.074 293.078,224.917 293.679 M250.203 293.679 C 250.055 294.241,229.094 294.720,229.094 294.160 C 229.094 293.078,229.180 293.069,239.913 293.069 C 250.212 293.069,250.360 293.078,250.203 293.679 M274.791 293.313 C 274.791 294.205,273.895 294.288,264.219 294.288 C 258.807 294.288,254.379 294.231,254.379 294.160 C 254.379 293.081,254.488 293.069,264.770 293.069 C 270.281 293.069,274.791 293.179,274.791 293.313 M137.700 297.811 C 137.700 299.143,137.840 299.162,147.764 299.162 C 153.290 299.162,157.197 299.046,157.197 298.882 C 157.197 297.630,157.267 297.639,147.264 297.639 C 142.004 297.639,137.700 297.717,137.700 297.811 M160.853 297.915 C 160.853 299.177,160.726 299.162,171.569 299.162 L 181.916 299.162 181.819 298.477 L 181.721 297.791 171.287 297.711 C 164.990 297.663,160.853 297.743,160.853 297.915 M185.889 298.324 L 185.986 299.010 204.950 299.088 L 223.915 299.167 223.915 298.403 L 223.915 297.639 204.853 297.639 L 185.792 297.639 185.889 298.324 M228.060 298.121 C 227.958 298.386,227.875 298.730,227.875 298.886 C 227.875 299.058,232.012 299.138,238.309 299.090 L 248.743 299.010 248.841 298.324 L 248.938 297.639 238.591 297.639 C 229.438 297.639,228.224 297.695,228.060 298.121 M252.856 297.919 C 252.856 298.073,252.773 298.415,252.671 298.680 C 252.505 299.113,253.446 299.162,261.952 299.162 C 271.911 299.162,272.049 299.144,272.049 297.811 C 272.049 297.717,267.730 297.639,262.452 297.639 C 256.828 297.639,252.856 297.755,252.856 297.919 M241.280 300.457 C 241.280 300.875,241.544 301.270,241.945 301.451 C 243.966 302.364,242.934 302.513,234.603 302.513 C 226.555 302.513,226.352 302.528,226.352 303.123 C 226.352 303.717,226.555 303.732,234.882 303.732 L 243.412 303.732 243.412 305.864 L 243.412 307.997 235.644 307.997 L 227.875 307.997 227.875 306.357 C 227.875 304.316,228.790 304.472,217.441 304.579 C 207.742 304.670,207.696 304.679,209.292 306.169 C 210.976 307.743,210.636 307.997,206.848 307.997 C 203.754 307.997,203.398 307.936,202.310 307.216 C 199.220 305.171,197.395 304.836,188.652 304.713 C 179.778 304.589,179.599 304.633,181.569 306.474 C 183.175 307.974,183.073 307.997,174.714 307.997 L 166.946 307.997 166.946 306.499 C 166.946 304.579,167.690 304.701,157.045 304.875 C 147.309 305.034,146.728 305.133,148.290 306.355 C 149.885 307.604,149.613 307.997,147.154 307.997 C 144.800 307.997,144.583 307.619,146.174 306.296 C 147.533 305.165,146.861 304.950,141.965 304.950 C 137.043 304.950,136.376 305.169,137.807 306.310 C 138.254 306.667,138.756 307.432,138.922 308.009 C 139.360 309.537,139.315 327.438,138.870 328.744 C 136.832 334.713,127.463 334.158,126.112 327.988 C 125.888 326.960,125.805 323.169,125.871 316.879 L 125.971 307.329 126.809 306.662 C 128.403 305.391,128.012 305.255,122.772 305.255 C 117.456 305.255,117.171 305.366,118.862 306.777 L 119.827 307.582 120.061 311.979 C 120.190 314.396,120.305 319.039,120.316 322.295 C 120.341 330.142,120.607 331.156,123.361 333.920 C 127.857 338.432,136.527 338.859,141.143 334.796 L 142.515 333.587 146.020 333.587 C 149.708 333.587,150.638 334.198,148.461 335.191 C 148.052 335.377,147.770 335.735,147.822 336.003 C 147.903 336.424,149.060 336.491,157.419 336.562 L 166.924 336.642 167.126 335.115 L 167.329 333.587 175.058 333.587 C 179.309 333.587,182.788 333.663,182.788 333.757 C 182.788 333.850,182.357 334.319,181.832 334.799 C 179.849 336.610,180.336 336.731,188.656 336.496 C 196.743 336.268,198.681 335.960,201.288 334.489 C 202.922 333.566,210.206 333.061,210.206 333.870 C 210.206 334.217,209.435 335.012,208.938 335.178 C 208.732 335.246,208.659 335.524,208.770 335.814 C 208.950 336.282,209.827 336.329,218.422 336.329 L 227.875 336.329 227.879 335.644 C 227.882 335.267,227.966 334.650,228.067 334.273 L 228.251 333.587 235.755 333.596 L 243.260 333.605 242.270 334.506 C 240.426 336.183,241.537 336.631,247.525 336.628 C 251.892 336.626,252.813 336.108,251.065 334.638 C 249.774 333.551,249.505 331.948,249.505 325.338 L 249.505 319.491 250.918 319.684 C 251.696 319.791,253.836 319.878,255.675 319.878 L 259.019 319.878 259.996 320.944 C 261.427 322.507,261.995 322.377,261.995 320.487 L 261.995 318.964 263.823 318.964 L 265.651 318.964 265.651 320.792 L 265.651 322.620 257.883 322.620 C 250.317 322.620,250.114 322.636,250.114 323.229 C 250.114 323.823,250.317 323.839,257.883 323.839 L 265.651 323.839 265.651 325.666 L 265.651 327.494 258.002 327.494 C 251.153 327.494,250.373 327.545,250.539 327.976 C 250.640 328.241,250.724 328.515,250.724 328.585 C 250.724 328.656,254.082 328.713,258.187 328.713 L 265.651 328.713 265.651 330.541 L 265.651 332.369 258.459 332.369 C 252.027 332.369,251.287 332.419,251.453 332.851 C 251.554 333.116,251.637 333.390,251.637 333.460 C 251.637 333.530,254.722 333.587,258.492 333.587 C 265.555 333.587,265.963 333.667,264.550 334.779 C 262.927 336.056,263.657 336.329,268.688 336.329 C 273.805 336.329,274.109 336.174,272.430 334.422 C 271.476 333.427,271.220 329.627,271.162 315.543 L 271.135 308.922 271.929 308.723 C 274.736 308.019,278.870 309.113,279.939 310.842 C 282.513 315.006,279.605 318.964,273.974 318.964 C 271.486 318.964,271.760 319.542,280.184 332.086 C 283.349 336.797,282.945 336.668,292.993 336.183 C 298.414 335.921,298.873 335.779,297.791 334.697 C 297.107 334.013,297.253 333.092,298.497 330.236 L 299.625 327.647 305.290 327.564 L 310.954 327.481 311.742 329.239 C 313.084 332.234,313.389 333.761,312.779 334.435 C 311.320 336.047,311.694 336.139,318.888 335.921 C 322.532 335.811,326.645 335.721,328.027 335.720 C 330.536 335.720,331.665 335.043,329.919 334.586 C 328.433 334.198,328.263 333.161,328.158 323.848 L 328.060 315.175 328.698 315.752 C 329.049 316.069,333.617 320.969,338.849 326.640 C 345.974 334.363,348.515 336.931,348.972 336.869 C 349.573 336.787,349.579 336.600,349.463 323.357 C 349.327 307.785,349.402 306.723,350.724 305.489 C 352.128 304.176,351.620 304.009,346.511 304.104 C 342.711 304.175,341.965 304.264,341.965 304.646 C 341.965 304.897,342.275 305.147,342.654 305.201 C 344.127 305.410,344.303 306.459,344.469 316.042 L 344.622 324.905 343.855 324.143 C 343.433 323.724,338.816 318.720,333.595 313.024 C 328.332 307.281,323.874 302.666,323.590 302.666 C 323.116 302.666,323.077 303.820,323.077 317.799 C 323.077 332.792,323.071 332.940,322.425 333.793 C 320.749 336.005,320.224 335.164,312.538 317.982 C 306.552 304.601,305.894 303.275,305.242 303.275 C 304.586 303.275,303.949 304.601,297.807 318.766 C 290.397 335.853,290.331 335.966,288.728 334.259 C 287.910 333.388,280.613 323.064,280.373 322.438 C 280.293 322.228,280.678 321.925,281.275 321.728 C 288.021 319.501,288.422 308.725,281.879 305.502 L 279.833 304.494 271.826 304.399 C 262.929 304.294,262.665 304.355,264.416 306.105 C 266.274 307.963,266.161 307.997,258.071 307.997 C 251.051 307.997,250.789 308.018,250.635 308.606 C 250.479 309.203,250.626 309.216,258.064 309.216 L 265.651 309.216 265.651 311.043 L 265.651 312.871 263.823 312.871 C 262.808 312.871,261.995 312.736,261.995 312.567 C 261.995 312.399,261.721 312.262,261.386 312.262 C 261.051 312.262,260.777 312.399,260.777 312.567 C 260.777 312.758,258.797 312.871,255.446 312.871 C 250.317 312.871,250.114 312.894,250.114 313.481 C 250.114 314.061,250.327 314.091,254.608 314.120 C 257.332 314.139,258.801 314.247,258.340 314.395 C 257.921 314.529,255.762 314.652,253.542 314.669 L 249.505 314.699 249.505 309.673 L 249.505 304.646 253.998 304.648 C 259.327 304.650,260.588 304.920,261.251 306.202 C 262.005 307.660,262.737 307.264,262.849 305.338 L 262.941 303.752 266.349 303.666 C 269.312 303.591,269.770 303.510,269.859 303.046 C 269.951 302.564,269.630 302.513,266.453 302.513 L 262.944 302.513 262.851 301.219 L 262.757 299.924 252.018 299.844 L 241.280 299.764 241.280 300.457 M0.305 301.567 C 0.305 301.908,0.577 302.333,0.911 302.512 C 2.441 303.330,2.460 303.557,2.369 319.427 L 2.285 334.205 1.103 335.288 C -0.583 336.832,-0.350 336.897,7.623 337.127 C 15.268 337.348,17.844 337.120,20.387 335.998 C 27.427 332.891,28.332 322.675,21.945 318.410 L 20.213 317.254 21.571 316.073 C 26.058 312.170,24.740 304.619,19.120 302.023 L 17.212 301.142 8.759 301.045 C 0.427 300.949,0.305 300.956,0.305 301.567 M139.889 303.042 C 139.985 303.539,140.682 303.586,149.228 303.660 C 157.912 303.736,158.456 303.709,158.359 303.203 C 158.263 302.706,157.566 302.660,149.021 302.585 C 140.336 302.509,139.792 302.536,139.889 303.042 M162.072 303.123 C 162.072 303.720,162.275 303.732,172.734 303.732 C 183.194 303.732,183.397 303.720,183.397 303.123 C 183.397 302.525,183.194 302.513,172.734 302.513 C 162.275 302.513,162.072 302.525,162.072 303.123 M186.501 303.046 C 186.597 303.546,187.744 303.585,204.707 303.658 C 222.944 303.737,223.281 303.721,223.301 302.742 C 223.303 302.616,215.001 302.513,204.852 302.513 C 187.441 302.513,186.404 302.543,186.501 303.046 M362.191 304.151 C 348.134 309.113,348.439 332.138,362.619 336.366 C 365.976 337.367,371.954 337.241,375.402 336.097 L 376.999 335.567 377.347 333.587 C 377.975 330.014,377.646 328.883,376.272 329.891 C 365.777 337.590,353.160 326.355,358.790 314.323 C 361.640 308.233,369.661 305.953,375.143 309.673 C 377.257 311.108,377.456 310.896,377.456 307.209 L 377.456 303.983 376.314 304.169 C 375.684 304.272,374.214 304.149,373.039 303.897 C 369.659 303.170,364.637 303.287,362.191 304.151 M57.103 304.066 C 56.989 304.250,56.997 310.813,57.121 318.651 C 57.357 333.577,57.303 334.438,56.060 335.563 C 54.550 336.929,54.299 336.485,45.742 317.316 C 40.295 305.113,39.421 303.488,38.697 304.213 C 38.524 304.386,35.392 311.443,31.738 319.895 C 26.034 333.091,24.979 335.319,24.276 335.660 C 23.220 336.173,23.229 336.822,24.296 337.034 C 27.641 337.699,33.284 336.557,31.648 335.546 C 31.125 335.222,31.503 333.371,32.583 330.964 L 33.555 328.797 35.589 328.605 C 36.708 328.499,39.232 328.412,41.198 328.410 L 44.773 328.408 45.503 329.855 C 45.904 330.651,46.480 332.090,46.781 333.052 L 47.330 334.802 46.634 335.543 C 45.390 336.866,45.783 336.928,55.460 336.929 C 64.168 336.929,64.585 336.903,64.585 336.360 C 64.585 336.047,64.322 335.722,64.002 335.638 C 62.535 335.255,62.336 334.046,62.213 324.752 L 62.098 316.070 63.142 317.136 C 63.716 317.723,68.338 322.699,73.411 328.195 C 79.397 334.678,82.810 338.153,83.131 338.092 C 83.577 338.006,83.640 336.495,83.778 322.663 L 83.930 307.330 84.768 306.662 C 86.354 305.397,85.963 305.255,80.883 305.255 C 76.007 305.255,75.016 305.549,76.939 306.426 C 78.469 307.123,78.616 308.132,78.527 317.358 L 78.446 325.802 68.294 314.767 C 58.656 304.290,57.593 303.273,57.103 304.066 M383.930 303.956 C 379.424 304.057,378.730 304.306,380.150 305.314 C 381.553 306.310,381.569 306.479,381.569 320.440 L 381.569 333.645 380.687 334.348 C 378.712 335.923,379.250 336.024,389.597 336.024 L 399.015 336.024 399.205 335.339 C 399.310 334.962,399.484 333.385,399.592 331.835 C 399.810 328.691,399.623 328.420,398.277 329.931 C 397.192 331.148,395.927 331.451,391.909 331.453 C 387.392 331.455,387.621 331.730,387.366 326.010 L 387.156 321.328 391.065 321.457 C 395.083 321.589,396.009 321.834,396.970 323.020 C 398.134 324.458,398.477 323.570,398.477 319.117 C 398.477 314.368,398.204 313.852,396.603 315.565 C 395.508 316.737,395.254 316.795,390.776 316.900 L 387.188 316.984 387.273 312.719 L 387.357 308.454 391.705 308.369 L 396.052 308.285 397.159 309.359 C 398.958 311.107,399.119 310.916,399.020 307.159 L 398.934 303.884 393.602 303.872 C 390.670 303.865,386.318 303.903,383.930 303.956 M97.113 304.815 C 87.178 307.223,82.455 319.517,87.659 329.421 C 90.479 334.789,95.336 337.548,101.963 337.548 C 104.439 337.548,104.589 337.590,107.017 338.968 C 115.461 343.759,116.604 343.952,119.650 341.098 C 121.108 339.731,120.985 339.069,119.287 339.143 C 117.267 339.231,110.476 335.861,111.368 335.214 C 122.913 326.838,119.689 307.181,106.355 304.652 C 104.083 304.221,99.207 304.307,97.113 304.815 M14.758 305.897 C 17.126 306.554,18.579 309.100,17.941 311.472 C 17.243 314.064,14.936 315.342,10.815 315.420 L 8.682 315.461 8.599 310.510 L 8.515 305.560 11.036 305.561 C 12.422 305.562,14.097 305.713,14.758 305.897 M106.556 309.812 C 113.218 312.725,114.881 323.958,109.527 329.884 C 104.692 335.235,95.019 333.240,92.249 326.321 C 91.225 323.763,91.245 318.078,92.288 315.461 C 94.493 309.926,100.960 307.366,106.556 309.812 M226.047 310.133 C 227.058 311.349,227.875 311.347,227.875 310.129 L 227.875 309.216 235.796 309.216 L 243.717 309.216 243.717 311.043 L 243.717 312.871 234.425 312.871 C 225.336 312.871,225.133 312.885,225.133 313.481 C 225.133 314.077,225.336 314.090,234.425 314.090 L 243.717 314.090 243.717 315.918 L 243.717 317.746 235.339 317.746 L 226.961 317.746 226.961 316.375 C 226.961 314.732,226.523 314.605,225.433 315.931 C 224.463 317.110,223.143 317.424,219.117 317.434 L 215.994 317.441 215.994 315.765 L 215.994 314.090 219.040 314.090 C 221.884 314.090,222.087 314.049,222.087 313.481 C 222.087 312.912,221.884 312.871,219.040 312.871 L 215.994 312.871 215.994 311.054 L 215.994 309.236 219.269 309.123 C 224.376 308.948,225.159 309.064,226.047 310.133 M149.581 311.043 L 149.581 312.871 147.144 312.871 L 144.707 312.871 144.707 311.043 L 144.707 309.216 147.144 309.216 L 149.581 309.216 149.581 311.043 M165.098 310.358 C 166.220 311.702,166.946 311.673,166.946 310.282 L 166.946 309.216 174.867 309.216 L 182.788 309.216 182.788 311.043 L 182.788 312.871 173.191 312.871 C 163.798 312.871,163.595 312.884,163.595 313.481 C 163.595 314.077,163.798 314.090,173.191 314.090 L 182.788 314.090 182.788 315.918 L 182.788 317.746 174.562 317.746 L 166.337 317.746 166.337 316.670 C 166.337 315.145,165.600 314.967,164.540 316.236 C 163.596 317.368,162.202 317.671,157.730 317.720 L 155.369 317.746 155.369 316.870 C 155.369 316.388,155.284 315.565,155.179 315.042 L 154.989 314.090 157.435 314.090 C 159.732 314.090,159.872 314.053,159.723 313.481 C 159.582 312.941,159.307 312.871,157.314 312.871 L 155.065 312.871 155.065 311.247 C 155.065 309.089,154.893 309.159,159.893 309.270 L 164.272 309.368 165.098 310.358 M197.258 310.191 C 198.096 310.629,199.184 311.411,199.676 311.929 L 200.571 312.871 194.421 312.871 L 188.271 312.871 188.271 311.221 C 188.271 309.187,188.219 309.212,192.384 309.314 C 195.310 309.386,195.928 309.497,197.258 310.191 M210.510 311.043 L 210.510 312.871 208.843 312.871 C 207.313 312.871,207.137 312.799,206.721 311.994 C 206.472 311.511,205.907 310.689,205.468 310.166 L 204.668 309.216 207.589 309.216 L 210.510 309.216 210.510 311.043 M309.114 323.128 C 309.048 323.194,307.282 323.210,305.190 323.162 L 301.387 323.077 303.388 318.115 L 305.388 313.153 307.311 318.080 C 308.369 320.790,309.180 323.061,309.114 323.128 M149.581 315.918 L 149.581 317.746 147.144 317.746 L 144.707 317.746 144.707 315.918 L 144.707 314.090 147.144 314.090 L 149.581 314.090 149.581 315.918 M201.946 314.928 C 202.135 315.388,202.416 316.211,202.571 316.756 L 202.852 317.746 195.561 317.746 L 188.271 317.746 188.271 315.918 L 188.271 314.090 194.936 314.090 L 201.602 314.090 201.946 314.928 M210.510 315.918 L 210.510 317.746 209.483 317.746 C 208.533 317.746,208.441 317.660,208.265 316.603 C 208.159 315.975,207.989 315.152,207.885 314.775 C 207.710 314.136,207.793 314.090,209.104 314.090 L 210.510 314.090 210.510 315.918 M265.651 315.918 L 265.651 317.746 263.823 317.746 L 261.995 317.746 261.995 315.918 L 261.995 314.090 263.823 314.090 L 265.651 314.090 265.651 315.918 M41.244 324.081 C 40.174 324.130,38.421 324.130,37.347 324.081 L 35.395 323.991 37.063 319.878 C 37.981 317.616,38.873 315.423,39.047 315.004 C 39.332 314.316,39.547 314.713,41.275 319.117 L 43.188 323.991 41.244 324.081 M149.581 320.792 L 149.581 322.620 147.144 322.620 L 144.707 322.620 144.707 320.792 L 144.707 318.964 147.144 318.964 L 149.581 318.964 149.581 320.792 M182.788 320.792 L 182.788 322.620 174.562 322.620 L 166.337 322.620 166.337 320.792 L 166.337 318.964 174.562 318.964 L 182.788 318.964 182.788 320.792 M202.894 320.792 L 202.894 322.620 195.583 322.620 L 188.271 322.620 188.271 320.792 L 188.271 318.964 195.583 318.964 L 202.894 318.964 202.894 320.792 M210.510 320.792 L 210.510 322.620 209.596 322.620 L 208.682 322.620 208.682 320.792 L 208.682 318.964 209.596 318.964 L 210.510 318.964 210.510 320.792 M243.717 320.792 L 243.717 322.620 235.339 322.620 L 226.961 322.620 226.961 320.792 L 226.961 318.964 235.339 318.964 L 243.717 318.964 243.717 320.792 M13.799 320.494 C 22.046 321.687,22.545 330.902,14.444 332.399 C 9.236 333.362,8.530 332.579,8.530 325.840 C 8.530 319.579,8.398 319.713,13.799 320.494 M163.214 322.480 C 163.423 322.547,163.595 322.879,163.595 323.220 C 163.595 323.673,163.794 323.839,164.338 323.839 C 164.747 323.839,165.174 323.988,165.287 324.170 C 165.434 324.408,165.584 324.408,165.823 324.170 C 166.045 323.947,168.888 323.839,174.471 323.839 L 182.788 323.839 182.788 325.666 L 182.788 327.494 172.887 327.494 C 163.189 327.494,162.986 327.507,162.986 328.104 C 162.986 328.701,163.189 328.713,173.039 328.713 L 183.092 328.713 183.092 330.541 L 183.092 332.369 175.324 332.369 L 167.555 332.369 167.555 331.150 C 167.555 329.878,166.627 329.345,166.227 330.387 C 165.744 331.645,164.214 332.062,160.076 332.063 C 155.577 332.064,155.369 331.975,155.369 330.037 L 155.369 328.742 157.270 328.651 C 160.177 328.513,160.267 327.494,157.372 327.494 L 155.369 327.494 155.369 325.666 L 155.369 323.839 157.502 323.839 C 159.431 323.839,159.634 323.781,159.634 323.229 C 159.634 322.680,159.415 322.615,157.426 322.572 C 155.341 322.527,155.302 322.514,156.740 322.341 C 158.253 322.159,162.484 322.250,163.214 322.480 M224.352 322.308 C 224.836 322.492,225.133 322.840,225.133 323.222 C 225.133 323.656,225.336 323.841,225.819 323.847 C 226.196 323.852,230.377 323.848,235.110 323.839 L 243.717 323.821 243.717 325.658 L 243.717 327.494 234.577 327.494 C 229.551 327.494,225.438 327.552,225.438 327.622 C 225.438 328.694,225.602 328.713,234.777 328.713 L 243.747 328.713 243.656 330.465 L 243.564 332.216 236.024 332.298 L 228.484 332.379 228.484 331.003 C 228.484 329.587,227.585 328.964,227.156 330.082 C 226.674 331.340,225.143 331.757,221.005 331.758 C 216.558 331.759,216.299 331.656,216.299 329.871 L 216.299 328.713 219.193 328.713 C 221.884 328.713,222.087 328.670,222.087 328.104 C 222.087 327.537,221.884 327.494,219.193 327.494 L 216.299 327.494 216.299 325.666 L 216.299 323.839 219.040 323.839 C 221.579 323.839,221.782 323.793,221.782 323.229 C 221.782 322.665,221.579 322.620,219.040 322.620 C 217.416 322.620,216.299 322.496,216.299 322.315 C 216.299 321.917,223.305 321.910,224.352 322.308 M149.581 325.666 L 149.581 327.494 147.144 327.494 L 144.707 327.494 144.707 325.666 L 144.707 323.839 147.144 323.839 L 149.581 323.839 149.581 325.666 M202.589 324.241 C 202.589 324.463,202.371 325.285,202.104 326.069 L 201.618 327.494 195.130 327.494 C 187.866 327.494,188.271 327.631,188.271 325.185 L 188.271 323.839 195.430 323.839 C 201.162 323.839,202.589 323.919,202.589 324.241 M210.510 325.666 L 210.510 327.494 209.104 327.494 C 207.793 327.494,207.710 327.448,207.885 326.809 C 207.989 326.432,208.159 325.609,208.265 324.981 C 208.441 323.924,208.533 323.839,209.483 323.839 L 210.510 323.839 210.510 325.666 M149.581 330.541 L 149.581 332.369 146.502 332.369 C 143.690 332.369,143.442 332.322,143.639 331.835 C 143.839 331.342,144.298 329.994,144.572 329.094 C 144.652 328.830,145.442 328.713,147.134 328.713 L 149.581 328.713 149.581 330.541 M199.410 329.797 C 196.021 332.789,188.847 332.925,188.634 330.000 L 188.541 328.713 194.575 328.726 L 200.609 328.738 199.410 329.797 M210.510 330.541 L 210.510 332.369 207.402 332.369 L 204.294 332.369 205.386 331.226 C 205.986 330.598,206.636 329.775,206.829 329.398 C 207.129 328.814,207.426 328.713,208.845 328.713 L 210.510 328.713 210.510 330.541 M138.005 338.462 C 137.682 339.065,137.773 339.071,147.253 339.071 C 157.065 339.071,157.197 339.056,157.197 337.980 C 157.197 337.425,138.306 337.899,138.005 338.462 M161.056 338.055 C 160.097 339.015,160.795 339.079,171.283 338.999 C 180.937 338.924,181.721 338.879,181.816 338.385 C 181.921 337.837,161.597 337.514,161.056 338.055 M186.324 338.334 C 186.222 338.599,186.139 338.873,186.139 338.943 C 186.139 339.013,194.584 339.071,204.907 339.071 C 221.896 339.071,223.658 339.025,223.490 338.589 C 223.389 338.324,223.305 338.050,223.305 337.980 C 223.305 337.529,186.497 337.882,186.324 338.334 M227.932 338.381 C 228.028 338.880,228.782 338.924,238.489 338.999 C 248.334 339.074,248.936 339.048,248.839 338.542 C 248.743 338.043,247.988 337.999,238.282 337.924 C 228.437 337.849,227.835 337.875,227.932 338.381 M252.671 338.334 C 252.773 338.599,252.856 338.873,252.856 338.943 C 252.856 339.013,257.121 339.071,262.333 339.071 C 270.849 339.071,271.791 339.022,271.624 338.589 C 271.523 338.324,271.439 338.050,271.439 337.980 C 271.439 337.910,267.175 337.852,261.963 337.852 C 253.447 337.852,252.505 337.901,252.671 338.334 M135.333 343.031 C 134.956 343.636,135.029 343.641,145.126 343.641 C 155.042 343.641,155.302 343.625,155.458 343.031 C 155.615 342.431,155.467 342.422,145.665 342.422 C 136.044 342.422,135.701 342.442,135.333 343.031 M159.545 343.035 C 159.386 343.642,159.493 343.648,169.940 343.568 C 179.713 343.494,180.502 343.449,180.597 342.955 C 180.769 342.060,159.779 342.140,159.545 343.035 M185.410 342.904 C 185.308 343.169,185.225 343.443,185.225 343.513 C 185.225 343.872,204.679 343.621,204.825 343.260 C 204.948 342.955,204.983 342.955,205.003 343.260 C 205.021 343.556,207.199 343.641,214.808 343.641 C 223.602 343.641,224.571 343.592,224.404 343.159 C 224.303 342.894,224.219 342.619,224.219 342.549 C 224.219 342.099,185.583 342.452,185.410 342.904 M229.152 342.955 C 229.247 343.449,230.036 343.494,239.809 343.568 C 250.256 343.648,250.362 343.642,250.204 343.035 C 249.969 342.140,228.979 342.060,229.152 342.955 M254.437 342.955 C 254.532 343.448,255.294 343.494,264.526 343.569 C 274.452 343.648,274.510 343.645,274.184 343.035 C 273.705 342.141,254.265 342.062,254.437 342.955 M131.455 347.906 C 130.904 348.514,130.923 348.515,141.885 348.515 C 153.178 348.515,153.237 348.509,153.237 347.424 C 153.237 346.872,131.964 347.343,131.455 347.906 M158.010 347.499 C 157.063 348.446,157.774 348.515,168.434 348.515 C 178.804 348.515,179.065 348.500,179.220 347.906 C 179.381 347.290,158.617 346.892,158.010 347.499 M184.191 347.778 C 184.089 348.043,184.006 348.317,184.006 348.387 C 184.006 348.458,188.462 348.515,193.907 348.515 C 203.605 348.515,203.808 348.502,203.808 347.906 C 203.808 347.060,184.515 346.934,184.191 347.778 M205.693 347.825 C 205.789 348.324,206.522 348.368,215.793 348.443 C 225.203 348.519,225.783 348.492,225.685 347.986 C 225.590 347.488,224.857 347.443,215.586 347.368 C 206.176 347.293,205.596 347.319,205.693 347.825 M230.674 347.825 C 230.770 348.324,231.531 348.368,241.383 348.443 C 251.373 348.518,251.982 348.492,251.885 347.986 C 251.789 347.487,251.028 347.443,241.176 347.368 C 231.186 347.293,230.577 347.319,230.674 347.825 M256.632 347.778 C 256.733 348.043,256.816 348.317,256.816 348.387 C 256.816 348.458,261.684 348.515,267.634 348.515 C 278.375 348.515,278.449 348.511,278.071 347.906 C 277.542 347.059,256.307 346.933,256.632 347.778 M125.438 352.402 C 123.922 353.341,124.487 353.389,137.133 353.389 C 150.282 353.389,150.431 353.375,150.485 352.094 C 150.508 351.555,126.325 351.852,125.438 352.402 M155.989 352.455 C 155.816 352.779,155.674 353.122,155.674 353.217 C 155.674 353.312,160.526 353.389,166.456 353.389 C 177.760 353.389,177.609 353.406,177.609 352.146 C 177.609 351.502,156.337 351.807,155.989 352.455 M182.788 352.146 C 182.788 352.300,182.704 352.642,182.603 352.907 C 182.436 353.341,183.429 353.389,192.468 353.389 L 202.518 353.389 202.664 352.628 L 202.810 351.866 192.799 351.866 C 186.922 351.866,182.788 351.981,182.788 352.146 M206.855 352.628 L 206.855 353.389 217.093 353.389 C 226.304 353.389,227.312 353.341,227.146 352.907 C 227.044 352.642,226.961 352.300,226.961 352.146 C 226.961 351.981,222.810 351.866,216.908 351.866 L 206.855 351.866 206.855 352.628 M232.140 352.146 C 232.140 353.406,231.989 353.389,243.292 353.389 C 249.223 353.389,254.075 353.312,254.075 353.217 C 254.075 351.870,254.042 351.866,242.792 351.866 C 236.526 351.866,232.140 351.981,232.140 352.146 M259.263 352.094 C 259.318 353.373,259.478 353.389,272.463 353.389 C 285.033 353.389,285.562 353.343,283.903 352.399 C 282.916 351.837,259.240 351.544,259.263 352.094 M153.542 357.350 C 153.218 357.954,153.310 357.959,164.313 357.959 C 175.728 357.959,175.781 357.954,175.781 356.868 C 175.781 356.311,153.843 356.787,153.542 357.350 M181.145 357.222 C 181.043 357.487,180.960 357.763,180.960 357.836 C 180.960 358.331,201.217 357.772,201.313 357.273 C 201.463 356.494,181.444 356.443,181.145 357.222 M208.073 357.350 C 208.073 357.947,208.276 357.959,218.464 357.959 C 227.813 357.959,228.836 357.911,228.669 357.477 C 228.568 357.212,228.484 356.938,228.484 356.868 C 228.484 356.798,223.892 356.740,218.279 356.740 C 208.276 356.740,208.073 356.752,208.073 357.350 M234.088 357.222 C 234.189 357.487,234.273 357.761,234.273 357.831 C 234.273 357.902,239.223 357.959,245.273 357.959 C 255.178 357.959,256.254 357.911,256.087 357.477 C 255.986 357.212,255.903 356.938,255.903 356.868 C 255.903 356.798,250.953 356.740,244.903 356.740 C 234.997 356.740,233.921 356.788,234.088 357.222 M150.800 362.224 C 150.476 362.828,150.568 362.833,161.746 362.833 C 172.706 362.833,173.026 362.816,173.343 362.224 C 173.667 361.620,173.575 361.615,162.398 361.615 C 151.438 361.615,151.117 361.631,150.800 362.224 M179.335 361.818 C 178.376 362.776,179.078 362.842,189.409 362.761 C 198.919 362.687,199.695 362.641,199.790 362.148 C 199.895 361.600,179.876 361.277,179.335 361.818 M209.653 362.144 C 209.749 362.643,210.504 362.687,220.210 362.761 C 230.055 362.837,230.657 362.810,230.560 362.304 C 230.464 361.805,229.710 361.761,220.003 361.687 C 210.158 361.611,209.556 361.638,209.653 362.144 M236.405 362.224 C 236.722 362.816,237.043 362.833,247.688 362.833 C 258.441 362.833,258.644 362.822,258.644 362.224 C 258.644 361.626,258.441 361.615,247.362 361.615 C 236.173 361.615,236.082 361.620,236.405 362.224 M147.814 366.855 C 147.613 367.056,147.449 367.330,147.449 367.464 C 147.449 367.598,152.643 367.708,158.993 367.708 C 170.877 367.708,170.906 367.705,170.906 366.616 C 170.906 366.273,148.161 366.507,147.814 366.855 M177.184 366.971 C 177.082 367.236,176.999 367.510,176.999 367.580 C 176.999 368.140,197.961 367.661,198.108 367.098 C 198.330 366.251,177.509 366.124,177.184 366.971 M211.335 367.094 C 211.569 367.990,232.864 368.070,232.692 367.174 C 232.596 366.681,231.800 366.635,221.882 366.561 C 211.283 366.482,211.176 366.487,211.335 367.094 M238.842 366.733 C 238.842 367.635,239.726 367.708,250.795 367.708 C 261.922 367.708,262.014 367.702,261.691 367.098 C 261.349 366.459,238.842 366.099,238.842 366.733 M144.158 371.424 C 143.957 371.625,143.793 371.899,143.793 372.034 C 143.793 372.168,149.193 372.277,155.794 372.277 C 168.159 372.277,168.165 372.277,168.165 371.186 C 168.165 370.842,144.506 371.077,144.158 371.424 M174.867 371.668 C 174.543 372.272,174.635 372.277,185.334 372.277 C 196.428 372.277,196.497 372.270,196.497 371.186 C 196.497 370.630,175.168 371.105,174.867 371.668 M213.164 371.668 C 213.319 372.263,213.579 372.277,224.266 372.277 C 235.114 372.277,235.205 372.272,234.882 371.668 C 234.565 371.076,234.244 371.059,223.780 371.059 C 213.154 371.059,213.007 371.067,213.164 371.668 M241.584 371.302 C 241.584 372.208,242.464 372.277,253.994 372.277 C 265.578 372.277,265.670 372.272,265.347 371.668 C 265.004 371.029,241.584 370.668,241.584 371.302 M172.490 376.299 C 171.379 377.410,171.799 377.456,183.092 377.456 C 189.549 377.456,194.059 377.341,194.059 377.176 C 194.059 377.023,194.143 376.680,194.244 376.415 C 194.487 375.783,173.120 375.669,172.490 376.299 M215.080 376.102 C 215.080 377.455,215.092 377.456,226.536 377.456 L 237.361 377.456 237.264 376.771 L 237.167 376.085 226.123 376.005 C 220.050 375.961,215.080 376.005,215.080 376.102 M169.568 381.289 C 169.466 381.554,169.383 381.828,169.383 381.898 C 169.383 381.969,174.441 382.026,180.622 382.026 C 192.186 382.026,192.232 382.022,192.232 380.935 C 192.232 380.486,169.741 380.838,169.568 381.289 M217.332 381.289 C 217.434 381.554,217.517 381.828,217.517 381.898 C 217.517 381.969,222.604 382.026,228.822 382.026 C 239.005 382.026,240.108 381.978,239.941 381.544 C 239.839 381.279,239.756 381.005,239.756 380.935 C 239.756 380.865,234.669 380.807,228.452 380.807 C 218.269 380.807,217.166 380.855,217.332 381.289 M166.522 386.164 C 166.420 386.429,166.337 386.703,166.337 386.773 C 166.337 386.843,171.531 386.900,177.881 386.900 C 189.765 386.900,189.794 386.898,189.794 385.809 C 189.794 385.360,166.695 385.712,166.522 386.164 M219.707 386.211 C 219.803 386.711,220.614 386.753,231.482 386.828 C 242.488 386.903,243.148 386.877,243.050 386.371 C 242.954 385.871,242.143 385.828,231.275 385.754 C 220.269 385.679,219.609 385.705,219.707 386.211 M163.493 390.759 C 162.525 391.728,163.198 391.782,175.091 391.702 C 186.051 391.628,186.899 391.584,186.995 391.089 C 187.100 390.541,164.035 390.217,163.493 390.759 M222.145 391.089 C 222.240 391.584,223.097 391.628,234.235 391.702 C 245.098 391.774,246.204 391.736,246.035 391.296 C 245.933 391.029,245.849 390.753,245.849 390.683 C 245.849 390.613,240.493 390.556,233.946 390.556 C 222.773 390.556,222.048 390.589,222.145 391.089 " stroke="none" fill="#043ca4" fill-rule="evenodd"></path><path id="path4" d="M327.190 107.940 C 327.190 107.992,327.635 108.438,328.180 108.930 L 329.170 109.825 328.275 108.835 C 327.441 107.912,327.190 107.705,327.190 107.940 M119.255 110.358 L 118.050 111.653 119.345 110.448 C 120.549 109.329,120.780 109.063,120.549 109.063 C 120.499 109.063,119.917 109.646,119.255 110.358 " stroke="none" fill="#7494cc" fill-rule="evenodd"></path></g></svg>